<svg width="32" height="32" viewBox="0 0 32 32" fill="none" xmlns="http://www.w3.org/2000/svg"><path d="M20.92 0h-9.845A11.074 11.074 0 0 0 0 11.075v9.845a11.075 11.075 0 0 0 11.075 11.075h9.845A11.076 11.076 0 0 0 31.995 20.92v-9.845A11.074 11.074 0 0 0 20.92 0Z" fill="#7D45F5"/><path d="M0 20.92a11.076 11.076 0 0 0 9.334 10.938V17.216H0v3.704Z" fill="url(#a)"/><path d="M20.209 11.457H2.165a.702.702 0 0 0-.702.7v14.269a11.073 11.073 0 0 0 9.612 5.567h9.833V12.157a.7.7 0 0 0-.7-.701Z" fill="#E8EEFF"/><path d="M23.57 8.046H5.527a.7.7 0 0 0-.701.7v21.318A11.018 11.018 0 0 0 11.075 32h9.845a11.044 11.044 0 0 0 3.351-.517V8.747a.7.7 0 0 0-.7-.7Z" fill="#E8EEFF"/><path d="M8.514 11.266a.609.609 0 1 0-1.217 0 .609.609 0 0 0 1.217 0Zm11.786-.608h-9.723a.609.609 0 0 0 0 1.217H20.3a.609.609 0 1 0 0-1.217Zm-4.231 2.807h-5.492a.609.609 0 0 0 0 1.217h5.492a.609.609 0 1 0 0-1.217Z" fill="#80A1FF"/><path fill-rule="evenodd" clip-rule="evenodd" d="M24.27 11.86h-.008a3.812 3.812 0 0 1-3.811-3.812v-.001h3.12a.7.7 0 0 1 .7.7v3.113Z" fill="#CBD8FF"/><path fill-rule="evenodd" clip-rule="evenodd" d="M16.319 16.633h-2.964a5.545 5.545 0 0 0-4.934 3.012 5.557 5.557 0 0 1-2.22 2.299l-1.375.77v7.352c.402.276.821.524 1.255.743a11.015 11.015 0 0 0 2.36.871l.008-.002c.857.208 1.738.313 2.626.311h9.845a11.134 11.134 0 0 0 3.351-.513V16.627h-7.706c-.082 0-.164.002-.246.006Z" fill="url(#b)"/><path d="M16.813 17.213a4.565 4.565 0 0 0-4.035 2.432L6.715 31.099c1.376.59 2.859.893 4.356.892h9.846A11.075 11.075 0 0 0 31.99 20.916v-3.703H16.813Z" fill="#FCD34D"/><path fill-rule="evenodd" clip-rule="evenodd" d="M4.826 11.457v18.608a11.146 11.146 0 0 1-3.363-3.644v-.605a1.623 1.623 0 0 0 .857-1.43v-.121a2.344 2.344 0 0 1 .88-1.83 2.347 2.347 0 0 0 .88-1.819v-9.159h.746Z" fill="url(#c)"/><path d="M21.948 21.269h-5.975l.605-1.158h5.975l-.605 1.158Z" fill="#fff"/><path d="M24.271 11.226a3.18 3.18 0 1 0 0-6.36 3.18 3.18 0 0 0 0 6.36Z" fill="#2DD4BF"/><path d="M24.271 5.592a2.454 2.454 0 1 1 0 4.908 2.454 2.454 0 0 1 0-4.908Zm0-.726a3.18 3.18 0 1 0 0 6.36 3.18 3.18 0 0 0 0-6.36Z" fill="#fff"/><path d="m23.077 7.96 1.057 1.059L26.48 6.42" stroke="#fff" stroke-linecap="round" stroke-linejoin="round"/><path d="M29.769 13.656h-.039c-1.038 0-1.563-.78-1.61-1.77l-.004-.148c0 1.06-.526 1.918-1.615 1.918h.038c1.074 0 1.594.837 1.614 1.881v-.073.147c-.02-1.073.512-1.955 1.616-1.955ZM11.012 3.618h-.024c-.654 0-.984-.487-1.014-1.106L9.97 2.42c0 .662-.33 1.198-1.016 1.198h.023c.677 0 1.004.524 1.017 1.176V4.75v.091c-.012-.67.322-1.222 1.017-1.222Zm2.299 1.577h-.017c-.461 0-.695-.341-.716-.775l-.001-.064c0 .464-.234.84-.718.84h.017c.477 0 .708.365.717.822v-.032.064c-.008-.47.228-.855.718-.855Z" fill="#FFFBEB"/><defs><linearGradient id="a" x1="0" y1="19.906" x2="1.392" y2="19.906" gradientUnits="userSpaceOnUse"><stop stop-color="#FEF3C7"/><stop offset="1" stop-color="#FCD34D"/></linearGradient><linearGradient id="b" x1="18.03" y1="25.836" x2="6.716" y2="12.343" gradientUnits="userSpaceOnUse"><stop stop-color="#A9BEFD"/><stop offset=".778" stop-color="#A9BEFD" stop-opacity="0"/></linearGradient><linearGradient id="c" x1="-4.538" y1="16.518" x2="7.321" y2="26.078" gradientUnits="userSpaceOnUse"><stop stop-color="#CBD8FF" stop-opacity="0"/><stop offset="1" stop-color="#A9BEFD"/></linearGradient></defs></svg>