<svg width="32" height="32" viewBox="0 0 32 32" fill="none" xmlns="http://www.w3.org/2000/svg"><g clip-path="url(#a)"><path d="M20.924 0h-9.848A11.074 11.074 0 0 0 0 11.077v9.846A11.079 11.079 0 0 0 11.076 32h9.848A11.078 11.078 0 0 0 32 20.923v-9.846A11.078 11.078 0 0 0 20.924 0Z" fill="url(#b)"/><path fill-rule="evenodd" clip-rule="evenodd" d="M18.168 0h-.391l-4.269 10.69L1.491 5.532c-.062.105-.121.21-.18.318L13.3 11l-8.57 9.776L.146 9.286c-.04.243-.074.485-.097.735l4.393 11.005-4.27 1.847c.026.122.05.243.071.364l4.33-1.872 3.843 10.31c.14.036.28.067.424.096L4.92 21.245l16.874-4.137-5.066 7.818-6.605 7.026c.156.013.31.024.468.031l6.301-6.706 6.941 6.326c.137-.038.274-.076.409-.121l-7.124-6.493 5.162-7.974 9.477 1.616-4.841 11.604c.187-.119.37-.244.55-.375l4.535-10.868V17.66l-.17.615-9.412-1.596 2.832-10.62 4.514-1.652a9.556 9.556 0 0 0-.235-.3L25.2 5.688 22.892.18c-.14-.025-.28-.05-.422-.069l2.394 5.716-10.92 4.758L18.168 0Zm-4.51 11.154.05.02.042-.105 11.078-4.83-2.783 10.434-16.848 4.13 8.462-9.65Z" fill="#E1E8FE"/><path d="M4.795 30.043A11.067 11.067 0 0 0 11.076 32h3.39a5.42 5.42 0 0 0-9.675-1.957h.004Z" fill="#80A1FF"/><path d="M31.91 15.269a3.212 3.212 0 0 0 .06 6.423c.018-.255.03-.51.03-.769V15.27h-.09Z" fill="#5EEAD4"/><path d="M30.519 21.35c.45.228.948.345 1.452.342.018-.255.03-.51.03-.768v-1.248c-1.353.285-1.482 1.672-1.482 1.675Z" fill="#2DD4BF"/><path d="M25.1 8.3a2.38 2.38 0 1 0 0-4.759 2.38 2.38 0 0 0 0 4.76Z" fill="#5EEAD4"/><path d="M22.193 17.782a.959.959 0 1 0 0-1.918.959.959 0 0 0 0 1.918Zm-5.311 9.164a1.918 1.918 0 1 0 0-3.837 1.918 1.918 0 0 0 0 3.837Z" fill="#FECACA"/><path d="M25.736 6.734c-1.096.071-1.406.828-1.48 1.41a2.38 2.38 0 0 0 3-3.225c.013.09.228 1.701-1.52 1.815Z" fill="#2DD4BF"/><path d="M4.679 23.11a1.992 1.992 0 1 0 0-3.985 1.992 1.992 0 0 0 0 3.984Z" fill="#5EEAD4"/><path d="M5.21 21.797c-.917.06-1.176.694-1.238 1.181a1.99 1.99 0 0 0 2.512-2.702c.01.076.19 1.427-1.274 1.521Z" fill="#2DD4BF"/><path d="M18.406 23.866c-1.059.17-.37 1.46-1.411 1.514-1.18.06-.98 1.34-.977 1.359a1.916 1.916 0 0 0 2.388-2.873Zm4.332-6.801c-.75.242-.605.708-.605.71a.956.956 0 0 0 1.017-1.025.696.696 0 0 1-.412.315Z" fill="#FCA5A5"/><path d="M13.607 14.143a3.212 3.212 0 1 0 0-6.424 3.212 3.212 0 0 0 0 6.424Z" fill="#80A1FF"/><path d="M14.436 12.087c-2.091-.179-2.265 1.71-2.267 1.71a3.21 3.21 0 0 0 4.654-2.913s-.293 1.382-2.387 1.203Z" fill="#4B79FE"/><path d="M1.122 11.585a8.049 8.049 0 0 0 4.386-10.08A11.064 11.064 0 0 0 0 11.076v.898a8.014 8.014 0 0 0 1.122-.39Z" fill="#FECACA"/><path d="M0 11.077v.895a7.989 7.989 0 0 0 5.558-5.248c-1.03.79-2.392 1.28-4.195 1.132-.303-.025-.592-.04-.87-.047A11.098 11.098 0 0 0 0 11.077Z" fill="#FCA5A5"/></g><defs><radialGradient id="b" cx="0" cy="0" r="1" gradientUnits="userSpaceOnUse" gradientTransform="rotate(45 .069 .281) scale(45.1864)"><stop stop-color="#9920A4"/><stop offset="1" stop-color="#9B1AC8"/></radialGradient><clipPath id="a"><path fill="#fff" d="M0 0h32v32H0z"/></clipPath></defs></svg>