<svg width="32" height="32" viewBox="0 0 32 32" fill="none" xmlns="http://www.w3.org/2000/svg">
<g clip-path="url(#clip0_33_136)">
<path d="M20.9235 2.64626e-07H11.0766C9.62187 -0.000317734 8.18137 0.285969 6.83736 0.842505C5.49335 1.39904 4.27215 2.21492 3.24354 3.24354C2.21492 4.27215 1.39904 5.49335 0.842505 6.83736C0.285969 8.18137 -0.000317734 9.62187 2.64626e-07 11.0766V20.9235C0.000641988 23.8609 1.16784 26.6779 3.24496 28.755C5.32207 30.8322 8.13906 31.9994 11.0766 32H20.9235C23.8609 31.9994 26.6779 30.8322 28.755 28.755C30.8322 26.6779 31.9994 23.8609 32 20.9235V11.0766C31.9997 8.13896 30.8326 5.32179 28.7554 3.2446C26.6782 1.16741 23.861 0.000321189 20.9235 2.64626e-07Z" fill="url(#paint0_radial_33_136)"/>
<path d="M7.80393 6.02118H1.2236C1.08926 6.29349 0.958548 6.55976 0.847201 6.83812C0.304604 8.14521 0.0170362 9.54402 0 10.9592L0 21.0396C0 21.341 0.0181543 21.6448 0.0459909 21.9389H10.2003V8.41634C10.2 7.78099 9.94737 7.17178 9.498 6.72263C9.04862 6.27349 8.43928 6.02118 7.80393 6.02118V6.02118Z" fill="url(#paint1_linear_33_136)"/>
<path d="M12.8121 21.2538H0.00848389C0.0931778 24.1328 1.29645 26.8655 3.3629 28.8718C5.42936 30.8782 8.19634 32.0003 11.0766 32H15.2073V23.649C15.2073 23.0138 14.9549 22.4046 14.5057 21.9554C14.0566 21.5062 13.4473 21.2538 12.8121 21.2538V21.2538Z" fill="url(#paint2_linear_33_136)"/>
<path d="M4.14899 15.3707C4.14899 13.5659 5.61202 12.1029 7.41676 12.1029H10.2004V18.6384H7.41676C5.61202 18.6384 4.14899 17.1754 4.14899 15.3707V15.3707Z" fill="#183FB0"/>
<path d="M5.26595 11.9286V16.4188C5.265 16.5669 5.29334 16.7137 5.34935 16.8508C5.40537 16.9879 5.48795 17.1126 5.59234 17.2176C5.69673 17.3227 5.82087 17.4061 5.95761 17.463C6.09435 17.5199 6.24099 17.5492 6.3891 17.5492H32V11.0766C32 10.9858 32 10.895 31.9927 10.8055H6.3891C6.24156 10.8053 6.09544 10.8342 5.9591 10.8906C5.82276 10.947 5.69889 11.0297 5.59456 11.1341C5.49024 11.2384 5.40751 11.3623 5.35112 11.4986C5.29474 11.6349 5.26579 11.7811 5.26595 11.9286Z" fill="#EFF6FF"/>
<path d="M8.97308 14.826C9.33336 14.826 9.62543 14.534 9.62543 14.1737C9.62543 13.8134 9.33336 13.5213 8.97308 13.5213C8.6128 13.5213 8.32074 13.8134 8.32074 14.1737C8.32074 14.534 8.6128 14.826 8.97308 14.826Z" fill="#80A1FF"/>
<path d="M24.9924 14.826C25.3527 14.826 25.6448 14.534 25.6448 14.1737C25.6448 13.8134 25.3527 13.5213 24.9924 13.5213C24.6322 13.5213 24.3401 13.8134 24.3401 14.1737C24.3401 14.534 24.6322 14.826 24.9924 14.826Z" fill="#A9BEFD"/>
<path d="M17.007 14.826C17.3672 14.826 17.6593 14.534 17.6593 14.1737C17.6593 13.8134 17.3672 13.5213 17.007 13.5213C16.6467 13.5213 16.3546 13.8134 16.3546 14.1737C16.3546 14.534 16.6467 14.826 17.007 14.826Z" fill="#CBD8FF"/>
<path d="M21.0251 14.826C21.3854 14.826 21.6775 14.534 21.6775 14.1737C21.6775 13.8134 21.3854 13.5213 21.0251 13.5213C20.6648 13.5213 20.3728 13.8134 20.3728 14.1737C20.3728 14.534 20.6648 14.826 21.0251 14.826Z" fill="#80A1FF"/>
<path opacity="0.75" d="M28.921 14.826C29.2813 14.826 29.5734 14.534 29.5734 14.1737C29.5734 13.8134 29.2813 13.5213 28.921 13.5213C28.5607 13.5213 28.2687 13.8134 28.2687 14.1737C28.2687 14.534 28.5607 14.826 28.921 14.826Z" fill="#4B79FE"/>
<path opacity="0.75" d="M12.99 14.826C13.3503 14.826 13.6423 14.534 13.6423 14.1737C13.6423 13.8134 13.3503 13.5213 12.99 13.5213C12.6297 13.5213 12.3376 13.8134 12.3376 14.1737C12.3376 14.534 12.6297 14.826 12.99 14.826Z" fill="#4B79FE"/>
</g>
<defs>
<radialGradient id="paint0_radial_33_136" cx="0" cy="0" r="1" gradientUnits="userSpaceOnUse" gradientTransform="translate(0.432073 0.033888) rotate(45) scale(45.1864)">
<stop stop-color="#2EBA56"/>
<stop offset="1" stop-color="#0BB88E"/>
</radialGradient>
<linearGradient id="paint1_linear_33_136" x1="5.10015" y1="6.02118" x2="5.10015" y2="21.9389" gradientUnits="userSpaceOnUse">
<stop stop-color="#4B79FE"/>
<stop offset="1" stop-color="#1854FF"/>
</linearGradient>
<linearGradient id="paint2_linear_33_136" x1="7.62482" y1="21.301" x2="7.62482" y2="34.0696" gradientUnits="userSpaceOnUse">
<stop stop-color="#4B79FE"/>
<stop offset="1" stop-color="#1854FF"/>
</linearGradient>
<clipPath id="clip0_33_136">
<rect width="32" height="32" fill="white"/>
</clipPath>
</defs>
</svg>
