<svg width="32" height="32" viewBox="0 0 32 32" fill="none" xmlns="http://www.w3.org/2000/svg"><g clip-path="url(#a)"><path d="M20.924 0h-9.847A11.074 11.074 0 0 0 0 11.077v9.847A11.079 11.079 0 0 0 11.077 32h9.847A11.078 11.078 0 0 0 32 20.924v-9.847A11.078 11.078 0 0 0 20.924 0Z" fill="url(#b)"/><path d="M7.804 6.021h-6.58A11.097 11.097 0 0 0 0 10.96v10.08c0 .302.018.606.046.9H10.2V8.416a2.396 2.396 0 0 0-2.396-2.395Z" fill="url(#c)"/><path d="M12.812 21.254H.008A11.072 11.072 0 0 0 11.077 32h4.13v-8.351a2.395 2.395 0 0 0-2.395-2.395Z" fill="url(#d)"/><path d="M4.149 15.37a3.268 3.268 0 0 1 3.268-3.267H10.2v6.535H7.417a3.268 3.268 0 0 1-3.268-3.267Z" fill="#183FB0"/><path d="M5.266 11.929v4.49a1.123 1.123 0 0 0 1.123 1.13H32v-6.472c0-.091 0-.182-.007-.271H6.389a1.12 1.12 0 0 0-1.123 1.123Z" fill="#EFF6FF"/><path d="M8.973 14.826a.652.652 0 1 0 0-1.305.652.652 0 0 0 0 1.305Z" fill="#80A1FF"/><path d="M24.992 14.826a.652.652 0 1 0 0-1.305.652.652 0 0 0 0 1.305Z" fill="#A9BEFD"/><path d="M17.007 14.826a.652.652 0 1 0 0-1.305.652.652 0 0 0 0 1.305Z" fill="#CBD8FF"/><path d="M21.025 14.826a.652.652 0 1 0 0-1.305.652.652 0 0 0 0 1.305Z" fill="#80A1FF"/><path opacity=".75" d="M28.921 14.826a.652.652 0 1 0 0-1.305.652.652 0 0 0 0 1.305Zm-15.931 0a.652.652 0 1 0 0-1.304.652.652 0 0 0 0 1.304Z" fill="#4B79FE"/></g><defs><linearGradient id="c" x1="5.1" y1="6.021" x2="5.1" y2="21.939" gradientUnits="userSpaceOnUse"><stop stop-color="#4B79FE"/><stop offset="1" stop-color="#1854FF"/></linearGradient><linearGradient id="d" x1="7.625" y1="21.301" x2="7.625" y2="34.07" gradientUnits="userSpaceOnUse"><stop stop-color="#4B79FE"/><stop offset="1" stop-color="#1854FF"/></linearGradient><radialGradient id="b" cx="0" cy="0" r="1" gradientUnits="userSpaceOnUse" gradientTransform="rotate(45 .175 .539) scale(45.1864)"><stop stop-color="#2EBA56"/><stop offset="1" stop-color="#0BB88E"/></radialGradient><clipPath id="a"><path fill="#fff" d="M0 0h32v32H0z"/></clipPath></defs></svg>